<svg width="111" height="14" viewBox="0 0 111 14" fill="none" xmlns="http://www.w3.org/2000/svg">
<path d="M103.666 0.625C105.281 0.625 106.474 0.710647 107.244 0.88194C108.015 1.05323 108.615 1.37135 109.043 1.83628C109.532 2.38687 109.832 3.24945 109.942 4.42403C109.991 4.92567 110.016 5.78825 110.016 7.01177C110.016 8.54117 109.924 9.66681 109.74 10.3887C109.569 11.0983 109.251 11.6611 108.786 12.0771C108.162 12.6277 107.171 12.9458 105.813 13.0315C105.14 13.0927 103.384 13.1233 100.546 13.1233C99.0406 13.1233 97.915 13.0743 97.1686 12.9764C96.4345 12.8786 95.8228 12.7011 95.3334 12.4442C94.7094 12.1016 94.275 11.5633 94.0303 10.8292C93.7978 10.0828 93.6816 8.89599 93.6816 7.26871C93.6816 5.4212 93.7367 4.2038 93.8468 3.61651C94.1404 1.98922 95.2171 1.05323 97.0769 0.808528C98.0067 0.686176 100.203 0.625 103.666 0.625ZM101.922 2.93745C101.274 2.93745 100.79 2.93745 100.472 2.93745C100.154 2.93745 99.7747 2.95581 99.3343 2.99251C98.8938 3.01698 98.5818 3.03533 98.3983 3.04757C98.227 3.0598 98.0068 3.11486 97.7376 3.21274C97.4806 3.31063 97.3155 3.39015 97.2421 3.45133C97.1686 3.50027 97.0646 3.62262 96.9301 3.81839C96.7955 4.01415 96.7221 4.17933 96.7098 4.31391C96.6976 4.43626 96.667 4.66262 96.6181 4.99297C96.5814 5.32332 96.563 5.60473 96.563 5.83719C96.563 6.05743 96.563 6.41225 96.563 6.90166C96.563 7.45224 96.563 7.87436 96.563 8.168C96.563 8.46164 96.5936 8.77976 96.6548 9.12234C96.7282 9.45269 96.7893 9.68516 96.8383 9.81975C96.8995 9.95434 97.0279 10.1073 97.2237 10.2786C97.4317 10.4376 97.6213 10.5416 97.7926 10.5906C97.9762 10.6273 98.2759 10.6762 98.6919 10.7374C99.1079 10.7863 99.4933 10.8108 99.8482 10.8108C100.215 10.8108 100.747 10.8108 101.445 10.8108C103.194 10.8108 104.357 10.7863 104.932 10.7374C105.519 10.6885 105.978 10.5722 106.308 10.3887C106.651 10.2052 106.883 9.86869 107.006 9.37928C107.128 8.88988 107.189 8.03341 107.189 6.80989C107.189 6.33272 107.189 5.98402 107.189 5.76378C107.189 5.53131 107.171 5.25602 107.134 4.93791C107.098 4.61979 107.067 4.39956 107.042 4.27721C107.03 4.15485 106.957 3.9958 106.822 3.80003C106.7 3.60427 106.602 3.48192 106.529 3.43298C106.455 3.3718 106.284 3.29227 106.015 3.19439C105.758 3.09651 105.544 3.04757 105.372 3.04757C105.201 3.03533 104.895 3.01698 104.455 2.99251C104.026 2.95581 103.653 2.93745 103.335 2.93745C103.029 2.93745 102.558 2.93745 101.922 2.93745Z" fill="white"/>
<path d="M83.8216 6.14916L87.8225 1.63437C88.1162 1.26731 88.3915 1.02261 88.6484 0.900255C88.9053 0.777903 89.2663 0.728962 89.7312 0.753432H90.9058C91.334 0.753432 91.5481 0.930843 91.5481 1.28566C91.5481 1.38354 91.4747 1.52425 91.3279 1.70778L85.2164 8.3882V11.8018C85.2409 12.5971 84.8677 12.9947 84.0969 12.9947H83.5096C82.7388 12.9947 82.3656 12.5971 82.3901 11.8018V8.3882L76.2235 1.70778C76.0767 1.54872 76.0033 1.4019 76.0033 1.26731C76.0033 0.924725 76.2174 0.753432 76.6457 0.753432H77.8753C78.3402 0.728962 78.7012 0.777903 78.9581 0.900255C79.215 1.02261 79.4903 1.26731 79.784 1.63437L83.8216 6.14916Z" fill="white"/>
<path d="M62.328 0.625C63.9431 0.625 65.136 0.710647 65.9068 0.88194C66.6776 1.05323 67.2772 1.37135 67.7054 1.83628C68.1948 2.38687 68.4946 3.24945 68.6047 4.42403C68.6536 4.92567 68.6781 5.78825 68.6781 7.01177C68.6781 8.54117 68.5863 9.66681 68.4028 10.3887C68.2315 11.0983 67.9134 11.6611 67.4485 12.0771C66.8245 12.6277 65.8334 12.9458 64.4753 13.0315C63.8024 13.0927 62.0466 13.1233 59.208 13.1233C57.7031 13.1233 56.5775 13.0743 55.8311 12.9764C55.097 12.8786 54.4853 12.7011 53.9959 12.4442C53.3719 12.1016 52.9375 11.5633 52.6928 10.8292C52.4603 10.0828 52.3441 8.89599 52.3441 7.26871C52.3441 5.4212 52.3992 4.2038 52.5093 3.61651C52.8029 1.98922 53.8796 1.05323 55.7394 0.808528C56.6692 0.686176 58.8655 0.625 62.328 0.625ZM60.5845 2.93745C59.936 2.93745 59.4528 2.93745 59.1346 2.93745C58.8165 2.93745 58.4372 2.95581 57.9968 2.99251C57.5563 3.01698 57.2443 3.03533 57.0608 3.04757C56.8895 3.0598 56.6692 3.11486 56.4001 3.21274C56.1431 3.31063 55.978 3.39015 55.9045 3.45133C55.8311 3.50027 55.7271 3.62262 55.5925 3.81839C55.458 4.01415 55.3845 4.17933 55.3723 4.31391C55.3601 4.43626 55.3295 4.66262 55.2806 4.99297C55.2438 5.32332 55.2255 5.60473 55.2255 5.83719C55.2255 6.05743 55.2255 6.41225 55.2255 6.90166C55.2255 7.45224 55.2255 7.87436 55.2255 8.168C55.2255 8.46164 55.2561 8.77976 55.3173 9.12234C55.3907 9.45269 55.4518 9.68516 55.5008 9.81975C55.562 9.95434 55.6904 10.1073 55.8862 10.2786C56.0942 10.4376 56.2838 10.5416 56.4551 10.5906C56.6387 10.6273 56.9384 10.6762 57.3544 10.7374C57.7704 10.7863 58.1558 10.8108 58.5106 10.8108C58.8777 10.8108 59.4099 10.8108 60.1073 10.8108C61.857 10.8108 63.0193 10.7863 63.5944 10.7374C64.1817 10.6885 64.6405 10.5722 64.9708 10.3887C65.3134 10.2052 65.5459 9.86869 65.6682 9.37928C65.7906 8.88988 65.8518 8.03341 65.8518 6.80989C65.8518 6.33272 65.8518 5.98402 65.8518 5.76378C65.8518 5.53131 65.8334 5.25602 65.7967 4.93791C65.76 4.61979 65.7294 4.39956 65.7049 4.27721C65.6927 4.15485 65.6193 3.9958 65.4847 3.80003C65.3624 3.60427 65.2645 3.48192 65.1911 3.43298C65.1176 3.3718 64.9464 3.29227 64.6772 3.19439C64.4202 3.09651 64.2061 3.04757 64.0348 3.04757C63.8635 3.03533 63.5577 3.01698 63.1172 2.99251C62.689 2.95581 62.3158 2.93745 61.9977 2.93745C61.6918 2.93745 61.2207 2.93745 60.5845 2.93745Z" fill="white"/>
<path d="M46.5634 8.29643H42.1037C41.7489 8.29643 41.4675 8.2169 41.2595 8.05784C41.0637 7.88655 40.9658 7.65408 40.9658 7.36043C40.9658 7.07902 41.0637 6.85879 41.2595 6.69973C41.4675 6.52844 41.7489 6.44279 42.1037 6.44279H48.1234C48.5149 6.41832 48.8147 6.50397 49.0227 6.69973C49.2307 6.88326 49.3286 7.15855 49.3163 7.52561V7.74584C49.3163 8.89595 49.2796 9.72183 49.2062 10.2235C49.1328 10.7251 48.9799 11.1839 48.7474 11.5999C48.4048 12.2362 47.7686 12.6705 46.8387 12.903C46.3004 13.0376 44.5079 13.1049 41.4613 13.1049C38.4025 13.1049 36.5306 12.9703 35.8454 12.7011C35.2581 12.4809 34.7993 12.1811 34.4689 11.8018C34.1508 11.4103 33.9306 10.8903 33.8082 10.2418C33.6736 9.60559 33.6063 8.52278 33.6063 6.99338C33.6063 5.37833 33.6736 4.22822 33.8082 3.54305C33.9428 2.85788 34.2059 2.30118 34.5974 1.87295C35.1113 1.32236 35.8454 0.985896 36.7997 0.863544C37.7051 0.716722 39.7301 0.643311 42.8745 0.643311C44.6608 0.643311 45.9394 0.722839 46.7102 0.881897C47.4933 1.04095 48.0806 1.34683 48.4721 1.79954C48.937 2.32565 49.1695 2.94353 49.1695 3.65317C49.1695 3.97128 49.0716 4.22211 48.8759 4.40563C48.6923 4.58916 48.4354 4.68093 48.105 4.68093H47.5545C46.9427 4.69316 46.5573 4.41787 46.3982 3.85505C46.3004 3.57364 46.1168 3.35952 45.8477 3.2127C45.5785 3.07811 45.2359 2.99247 44.8199 2.95576C44.4161 2.90682 43.6698 2.88235 42.5809 2.88235C40.3418 2.88235 38.9042 2.91906 38.2679 2.99247C37.6317 3.06588 37.1974 3.24329 36.9649 3.5247C36.6223 3.90399 36.451 4.9501 36.451 6.66303C36.451 7.87431 36.4938 8.73689 36.5795 9.25077C36.6774 9.75242 36.8548 10.1134 37.1117 10.3336C37.3809 10.5783 37.7908 10.7373 38.3414 10.8108C38.9042 10.8719 40.0176 10.9025 41.6816 10.9025C43.3456 10.9025 44.4161 10.8719 44.8933 10.8108C45.3705 10.7496 45.7375 10.5966 45.9945 10.3519C46.386 9.97265 46.5818 9.36701 46.5818 8.53501C46.5818 8.44937 46.5756 8.36984 46.5634 8.29643Z" fill="white"/>
<path d="M24.2073 0.625C25.8223 0.625 27.0153 0.710647 27.7861 0.88194C28.5569 1.05323 29.1564 1.37135 29.5847 1.83628C30.0741 2.38687 30.3738 3.24945 30.4839 4.42403C30.5329 4.92567 30.5574 5.78825 30.5574 7.01177C30.5574 8.54117 30.4656 9.66681 30.2821 10.3887C30.1108 11.0983 29.7927 11.6611 29.3277 12.0771C28.7037 12.6277 27.7127 12.9458 26.3546 13.0315C25.6816 13.0927 23.9259 13.1233 21.0873 13.1233C19.5824 13.1233 18.4567 13.0743 17.7104 12.9764C16.9763 12.8786 16.3645 12.7011 15.8751 12.4442C15.2511 12.1016 14.8168 11.5633 14.5721 10.8292C14.3396 10.0828 14.2234 8.89599 14.2234 7.26871C14.2234 5.4212 14.2784 4.2038 14.3885 3.61651C14.6822 1.98922 15.7589 1.05323 17.6186 0.808528C18.5485 0.686176 20.7447 0.625 24.2073 0.625ZM22.4638 2.93745C21.8153 2.93745 21.332 2.93745 21.0139 2.93745C20.6958 2.93745 20.3165 2.95581 19.876 2.99251C19.4356 3.01698 19.1236 3.03533 18.94 3.04757C18.7687 3.0598 18.5485 3.11486 18.2793 3.21274C18.0224 3.31063 17.8572 3.39015 17.7838 3.45133C17.7104 3.50027 17.6064 3.62262 17.4718 3.81839C17.3372 4.01415 17.2638 4.17933 17.2516 4.31391C17.2393 4.43626 17.2088 4.66262 17.1598 4.99297C17.1231 5.32332 17.1048 5.60473 17.1048 5.83719C17.1048 6.05743 17.1048 6.41225 17.1048 6.90166C17.1048 7.45224 17.1048 7.87436 17.1048 8.168C17.1048 8.46164 17.1353 8.77976 17.1965 9.12234C17.2699 9.45269 17.3311 9.68516 17.38 9.81975C17.4412 9.95434 17.5697 10.1073 17.7655 10.2786C17.9735 10.4376 18.1631 10.5416 18.3344 10.5906C18.5179 10.6273 18.8177 10.6762 19.2337 10.7374C19.6497 10.7863 20.0351 10.8108 20.3899 10.8108C20.757 10.8108 21.2892 10.8108 21.9866 10.8108C23.7362 10.8108 24.8986 10.7863 25.4736 10.7374C26.0609 10.6885 26.5197 10.5722 26.8501 10.3887C27.1927 10.2052 27.4251 9.86869 27.5475 9.37928C27.6698 8.88988 27.731 8.03341 27.731 6.80989C27.731 6.33272 27.731 5.98402 27.731 5.76378C27.731 5.53131 27.7127 5.25602 27.676 4.93791C27.6393 4.61979 27.6087 4.39956 27.5842 4.27721C27.572 4.15485 27.4986 3.9958 27.364 3.80003C27.2416 3.60427 27.1437 3.48192 27.0703 3.43298C26.9969 3.3718 26.8256 3.29227 26.5564 3.19439C26.2995 3.09651 26.0854 3.04757 25.9141 3.04757C25.7428 3.03533 25.4369 3.01698 24.9965 2.99251C24.5682 2.95581 24.1951 2.93745 23.8769 2.93745C23.5711 2.93745 23.1 2.93745 22.4638 2.93745Z" fill="white"/>
<path d="M3.01496 10.7006H10.7598C11.5307 10.6639 11.9283 11.0065 11.9528 11.7284V11.967C11.9283 12.6889 11.5307 13.0314 10.7598 12.9947H1.38156C0.965564 13.007 0.659684 12.9152 0.463921 12.7194C0.268158 12.5237 0.176394 12.2178 0.188629 11.8018V1.94635C0.164159 1.15106 0.537332 0.753418 1.30815 0.753418H1.89544C2.66626 0.753418 3.03943 1.15106 3.01496 1.94635V10.7006Z" fill="white"/>
</svg>
